<?xml version="1.0" standalone="no"?>
<!DOCTYPE svg PUBLIC "-//W3C//DTD SVG 20010904//EN"
 "http://www.w3.org/TR/2001/REC-SVG-20010904/DTD/svg10.dtd">
<svg version="1.0" xmlns="http://www.w3.org/2000/svg"
 width="512.000000pt" height="512.000000pt" viewBox="0 0 512.000000 512.000000"
 preserveAspectRatio="xMidYMid meet">

<g transform="translate(0.000000,512.000000) scale(0.100000,-0.100000)"
fill="#000000" stroke="none">
<path d="M3805 5110 c-497 -78 -876 -440 -975 -932 l-11 -58 -987 0 -986 0
-423 -422 -423 -423 0 -1637 0 -1638 2560 0 2560 0 -3 2068 c-2 1627 -6 2078
-16 2117 -66 263 -160 435 -326 600 -158 157 -352 262 -578 311 -87 19 -309
27 -392 14z m330 -309 c177 -36 320 -116 447 -249 106 -111 195 -274 214 -390
l7 -42 -838 0 -838 0 7 42 c11 69 64 187 122 274 193 291 540 435 879 365z
m-1325 -1206 l0 -225 -547 0 -548 0 -217 217 c-120 120 -218 221 -218 225 0 5
344 8 765 8 l765 0 0 -225z m2010 -1535 l0 -1760 -155 0 -155 0 0 688 -1 687
-447 496 c-246 273 -468 520 -494 548 l-47 51 -206 0 -205 0 0 525 0 525 855
0 855 0 0 -1760z m-3502 1285 l192 -190 0 -241 0 -241 -450 -499 -449 -499 -1
-687 0 -688 -155 0 -155 0 0 1429 0 1429 302 297 301 296 111 -108 c61 -59
198 -193 304 -298z m1492 -425 l0 -150 -500 0 -500 0 0 150 0 150 500 0 500 0
0 -150z m895 -800 c173 -192 315 -352 315 -355 0 -3 -312 -5 -694 -5 l-695 0
-308 343 c-170 188 -312 348 -317 355 -6 9 134 12 688 12 l695 0 316 -350z
m-1670 -147 l375 -416 0 -629 0 -628 -150 0 -150 0 0 515 0 515 -450 0 -450 0
0 -515 0 -515 -150 0 -150 0 0 630 0 629 373 415 c204 228 373 415 374 415 2
1 171 -186 378 -416z m2175 -1093 l0 -580 -750 0 -750 0 0 580 0 580 750 0
750 0 0 -580z m-2400 -215 l0 -365 -150 0 -150 0 0 365 0 365 150 0 150 0 0
-365z"/>
<path d="M3512 3313 l3 -198 148 -3 147 -3 0 201 0 200 -150 0 -150 0 2 -197z"/>
<path d="M4120 3310 l0 -201 148 3 147 3 3 198 2 197 -150 0 -150 0 0 -200z"/>
<path d="M752 2963 l3 -198 148 -3 147 -3 0 201 0 200 -150 0 -150 0 2 -197z"/>
</g>
</svg>
